<svg width="166" height="205" viewBox="0 0 166 205" fill="#FF5C5C" xmlns="http://www.w3.org/2000/svg">
<path d="M31.8914 17.7823L63.6355 2.88281C63.6355 2.88281 64.0326 6.9059 65.2609 9.09094C66.1692 10.7066 66.8919 11.5384 68.3206 12.7203C70.5749 14.5853 72.3745 14.9359 75.2048 15.6811C78.3594 16.5117 80.2616 16.5031 83.5233 16.4452C87.2192 16.3795 89.4611 16.4785 92.8935 15.1081C95.8458 13.9293 97.6285 13.0435 99.6822 10.6191C101.81 8.10666 103.029 2.88281 103.029 2.88281L135.538 17.7823C135.538 17.7823 138.67 20.4843 140.127 22.6533C149.689 36.8843 163.84 83.875 163.84 83.875L130.757 97.1509L129.801 86.9314V100.589L117.466 117.303C112.271 115.712 101.671 112.471 100.83 112.241C99.9881 112.012 90.4713 123.48 85.8181 129.242L105.132 122.461L118.805 125.517L129.801 118.45L132.956 193.138C132.956 193.138 114.986 199.337 103.029 201.256C95.3651 202.486 90.9979 202.995 83.2365 203.071C74.5451 203.156 69.6168 202.746 61.0539 201.256C50.0783 199.347 33.7081 193.138 33.7081 193.138C33.7081 193.138 36.2443 147.637 36.5766 118.45C36.7167 106.142 36.5766 86.9314 36.5766 86.9314V97.1509L2.729 83.875C2.729 83.875 19.0791 34.1145 26.4414 22.6533C27.9838 20.2523 31.8914 17.7823 31.8914 17.7823Z" stroke="black" stroke-width="3.10226"/>
</svg>
